# This file uses meters as units for non-parametric coordinates.

mtllib Book_03.mtl
g default
v -13.813099 0.000000 3.433292
v 14.930088 0.000000 3.433292
v -13.813099 38.812626 3.433292
v 14.930088 38.812626 3.433292
v -13.813099 38.812626 -3.433289
v 14.930088 38.812626 -3.433289
v -13.813099 0.000000 -3.433289
v 14.930088 0.000000 -3.433289
v -13.813099 38.812626 2.090851
v 13.956093 38.812626 2.090851
v 13.956093 38.812626 -2.090849
v -13.813099 38.812626 -2.090849
v -13.813099 0.000000 -2.090849
v 13.956093 0.000000 -2.090849
v 13.956093 0.000000 2.090851
v -13.813099 0.000000 2.090851
v -12.729992 38.301975 2.090851
v 13.733963 38.301975 2.090847
v 13.733963 38.301975 -2.090849
v -12.729992 38.301975 -2.090849
v -12.729992 0.510620 -2.090849
v 13.733963 0.510620 -2.090849
v 13.733963 0.510620 2.090851
v -12.729992 0.510620 2.090851
v 16.329929 38.812626 -0.000000
v 16.329929 0.000000 -0.000000
v 14.219830 0.000000 0.000000
v -12.466251 0.510620 0.000000
v -12.466251 38.301975 0.000000
v 13.997711 38.301975 0.000000
v 14.219830 38.812626 0.000000
vt 0.242703 0.066537
vt 0.242703 0.408567
vt 0.221191 0.405297
vt 0.221191 0.063267
vt 0.128257 0.063267
vt 0.440079 0.094327
vt 0.440079 0.335171
vt 0.445095 0.333319
vt 0.128257 0.405297
vt 0.171281 0.405297
vt 0.171281 0.063267
vt 0.149769 0.066537
vt 0.445095 0.103357
vt 0.445095 0.335518
vt 0.440079 0.337370
vt 0.440079 0.335171
vt 0.278026 0.049835
vt 0.278026 0.420130
vt 0.264215 0.408051
vt 0.445095 0.333319
vt 0.440079 0.094327
vt 0.445095 0.103357
vt 0.916550 0.094327
vt 0.916550 0.335171
vt 0.911535 0.333319
vt 0.911535 0.103357
vt 0.916550 0.337370
vt 0.916550 0.335171
vt 0.911535 0.333319
vt 0.916550 0.094327
vt 0.911535 0.103357
vt 0.051108 0.511401
vt 0.339345 0.511114
vt 0.339345 0.929265
vt 0.051108 0.928978
vt 0.782989 0.477331
vt 0.499475 0.477331
vt 0.499475 0.894909
vt 0.782989 0.894909
vt 0.375321 0.929552
vt 0.375321 0.510828
vt 0.406575 0.510828
vt 0.406575 0.929552
vt 0.866351 0.482389
vt 0.838481 0.482389
vt 0.838481 0.894041
vt 0.866351 0.894041
vt 0.792717 0.477963
vt 0.792717 0.898467
vt 0.810611 0.898467
vt 0.810611 0.477963
vt 0.884245 0.898467
vt 0.884245 0.477963
vt 0.866351 0.477963
vt 0.866351 0.898467
vt 0.810611 0.482389
vt 0.810611 0.894041
vt 0.264215 0.049835
vt 0.242703 0.411322
vt 0.242703 0.423401
vt 0.207380 0.420130
vt 0.221191 0.408051
vt 0.207380 0.049835
vt 0.221191 0.049835
vt 0.114446 0.049835
vt 0.114446 0.420130
vt 0.128257 0.408051
vt 0.128257 0.049835
vt 0.149769 0.423401
vt 0.149769 0.411322
vt 0.185092 0.420130
vt 0.185092 0.049835
vt 0.171281 0.049835
vt 0.171281 0.408051
vt 0.264215 0.063267
vt 0.264215 0.405297
vn 0.000000 0.000000 1.000000
vn 0.000000 0.000000 1.000000
vn 0.000000 0.000000 1.000000
vn 0.000000 0.000000 1.000000
vn 0.000000 1.000000 0.000000
vn 0.000000 1.000000 0.000000
vn 0.000000 1.000000 0.000000
vn 0.000000 1.000000 0.000000
vn 0.000000 0.000000 -1.000000
vn 0.000000 0.000000 -1.000000
vn 0.000000 0.000000 -1.000000
vn 0.000000 0.000000 -1.000000
vn 0.000000 -1.000000 0.000000
vn 0.000000 -1.000000 0.000000
vn 0.000000 -1.000000 0.000000
vn 0.000000 -1.000000 0.000000
vn 0.000000 -1.000000 0.000000
vn 1.000000 0.000000 0.000000
vn 1.000000 0.000000 0.000000
vn 0.925989 0.000000 -0.377550
vn 0.925989 0.000000 -0.377550
vn -0.992138 0.000000 0.125149
vn -1.000000 0.000000 0.000000
vn -1.000000 0.000000 0.000000
vn -0.992138 0.000000 0.125149
vn 0.000000 1.000000 0.000003
vn 0.000000 1.000000 0.000003
vn 0.000000 1.000000 0.000003
vn 0.000000 1.000000 0.000003
vn 0.000000 1.000000 0.000000
vn 0.000000 1.000000 0.000000
vn 0.000000 1.000000 -0.000000
vn 0.000000 1.000000 -0.000000
vn 0.000000 1.000000 -0.000002
vn 0.000000 1.000000 -0.000002
vn 0.000000 1.000000 -0.000002
vn 0.000000 1.000000 -0.000002
vn 0.000000 -1.000000 0.000000
vn 0.000000 -1.000000 0.000000
vn 0.000000 -1.000000 0.000000
vn 0.000000 -1.000000 0.000000
vn 0.000000 -1.000000 0.000000
vn 0.000000 -1.000000 0.000000
vn 0.000000 -1.000000 0.000000
vn 0.000000 -1.000000 0.000000
vn 0.000000 -1.000000 0.000000
vn 0.000000 -1.000000 0.000000
vn 0.000000 -1.000000 0.000000
vn 0.000000 -1.000000 0.000000
vn -1.000000 0.000000 0.000000
vn -1.000000 0.000000 0.000000
vn -1.000000 0.000000 0.000000
vn -1.000000 0.000000 0.000000
vn -1.000000 0.000000 0.000000
vn -1.000000 0.000000 0.000000
vn -1.000000 0.000000 0.000000
vn -1.000000 0.000000 0.000000
vn -0.000000 0.000004 -1.000000
vn -0.000000 0.000004 -1.000000
vn -0.000000 0.000004 -1.000000
vn -0.000000 0.000004 -1.000000
vn -0.917003 0.398881 0.000000
vn -0.917003 0.398880 0.000000
vn -0.910929 0.396238 0.114905
vn -0.910929 0.396238 0.114905
vn 0.000000 0.000000 1.000000
vn 0.000000 0.000000 1.000000
vn 0.000000 0.000000 1.000000
vn 0.000000 0.000000 1.000000
vn 0.000000 0.000000 1.000000
vn 0.000000 0.000000 1.000000
vn 0.000000 0.000000 1.000000
vn 0.000000 0.000000 1.000000
vn -0.821821 -0.569746 0.000000
vn -0.821821 -0.569746 0.000000
vn -0.821821 -0.569746 0.000000
vn -0.821821 -0.569746 0.000000
vn -0.821821 -0.569746 0.000000
vn 0.000000 0.000000 -1.000000
vn 0.000000 0.000000 -1.000000
vn 0.000000 0.000000 -1.000000
vn 0.000000 0.000000 -1.000000
vn -0.000000 0.000000 -1.000000
vn -0.000000 0.000000 -1.000000
vn -0.000000 0.000000 -1.000000
vn -0.000000 0.000000 -1.000000
vn -0.000000 0.000000 1.000000
vn -0.000000 0.000000 1.000000
vn -0.000000 0.000000 1.000000
vn -0.000000 0.000000 1.000000
vn 0.925989 0.000000 0.377550
vn 0.925989 0.000000 0.377550
vn 0.000000 -1.000000 0.000000
vn 0.000000 -1.000000 0.000000
vn -0.992138 0.000000 -0.125149
vn -0.992138 0.000000 -0.125149
vn 0.000000 1.000000 -0.000000
vn 0.000000 1.000000 -0.000000
vn 0.000000 1.000000 0.000001
vn 0.000000 1.000000 0.000001
vn -0.910929 0.396239 -0.114905
vn -0.910929 0.396239 -0.114905
s off
g Livre_03
usemtl initialShadingGroup
f 1/32/1 2/33/2 4/34/3 3/35/4
s 1
f 29/1/5 30/2/6 19/3/7 20/4/8
s off
f 5/36/9 6/37/10 8/38/11 7/39/12
f 21/5/13 22/9/14 23/10/15 24/11/16 28/12/17
s 2
f 25/40/18 26/41/19 8/42/20 6/43/21
s 3
f 21/44/22 28/45/23 29/46/24 20/47/25
s off
f 3/17/26 4/18/27 10/19/28 9/58/29
s 4
f 31/59/30 25/60/31 6/61/32 11/62/33
s off
f 6/61/34 5/63/35 12/64/36 11/62/37
f 7/65/38 8/66/39 14/67/40 13/68/41
s 5
f 8/66/42 26/69/43 27/70/44 14/67/45
s off
f 2/71/46 1/72/47 16/73/48 15/74/49
f 1/48/50 3/49/51 9/50/52 16/51/53
f 5/52/54 7/53/55 13/54/56 12/55/57
f 9/6/58 10/7/59 18/8/60 17/13/61
s 6
f 30/14/62 31/15/63 11/16/64 19/20/65
s off
f 11/16/66 12/21/67 20/22/68 19/20/69
f 13/23/70 14/24/71 22/25/72 21/26/73
f 14/24/74 27/27/75 15/28/76 23/29/77 22/25/78
f 15/28/79 16/30/80 24/31/81 23/29/82
f 16/30/83 9/6/84 17/13/85 24/31/86
f 12/21/87 13/23/88 21/26/89 20/22/90
s 2
f 2/33/91 26/41/19 25/40/18 4/34/92
s 5
f 27/70/44 26/69/43 2/71/93 15/74/94
s 3
f 29/46/24 28/45/23 24/56/95 17/57/96
s 1
f 17/75/97 18/76/98 30/2/6 29/1/5
s 4
f 4/18/99 25/60/31 31/59/30 10/19/100
s 6
f 10/7/101 31/15/63 30/14/62 18/8/102
