# Blender v2.79 (sub 0) OBJ File: 'Kromad_Office_RightWall.blend'
# www.blender.org
mtllib baseboard.mtl
o BASEBORDS_Cube.026
v 425.362152 346.082489 784.019958
v 425.362152 352.082489 784.019958
v 425.362152 346.082489 783.949951
v 425.362152 352.082489 783.949951
v 425.295593 352.082489 784.019958
v 425.295593 352.082489 783.949951
v 425.295593 346.082489 784.019958
v 425.295593 346.082489 783.949951
v 425.362152 346.082489 272.674927
v 425.362152 352.082489 272.674927
v 425.295593 352.082489 272.674927
v 425.295593 346.082489 272.674927
v 425.297363 347.048859 784.027832
v 425.297363 347.048859 271.693390
v 425.176636 347.029999 784.027832
v 425.176636 347.029999 271.693390
v 425.060547 346.974121 784.027832
v 425.060547 346.974121 271.693390
v 424.953552 346.883423 784.027832
v 424.953552 346.883423 271.693390
v 424.859802 346.761353 784.027832
v 424.859802 346.761353 271.693390
v 424.782837 346.612610 784.027832
v 424.782837 346.612610 271.693390
v 424.725677 346.442902 784.027832
v 424.725677 346.442902 271.693390
v 424.690430 346.258789 784.027832
v 424.690430 346.258789 271.693390
v 424.678558 346.067291 784.027832
v 424.678558 346.067291 271.693390
vn 0.0000 1.0000 0.0000
vn 1.0000 0.0000 0.0000
vn 0.0000 0.0000 1.0000
vn -1.0000 0.0000 0.0000
vn 0.0000 -1.0000 0.0000
vn 0.0000 0.0000 -1.0000
vn -0.1543 0.9880 0.0000
vn -0.4338 0.9010 0.0000
vn -0.6467 0.7628 0.0000
vn -0.7931 0.6091 0.0000
vn -0.8881 0.4596 0.0000
vn -0.9477 0.3192 0.0000
vn -0.9822 0.1881 0.0000
vn -0.9981 0.0618 0.0000
usemtl BASEBORDS
s off
f 6//1 5//1 2//1 4//1
f 3//2 4//2 2//2 1//2
f 5//3 7//3 1//3 2//3
f 8//4 6//4 11//4 12//4
f 7//5 8//5 3//5 1//5
f 12//6 11//6 10//6 9//6
f 3//5 8//5 12//5 9//5
f 6//1 4//1 10//1 11//1
f 4//2 3//2 9//2 10//2
f 13//7 14//7 16//7 15//7
f 15//8 16//8 18//8 17//8
f 17//9 18//9 20//9 19//9
f 19//10 20//10 22//10 21//10
f 21//11 22//11 24//11 23//11
f 23//12 24//12 26//12 25//12
f 25//13 26//13 28//13 27//13
f 27//14 28//14 30//14 29//14
