# Blender v2.82 (sub 7) OBJ File: 'pc_desk.blend'
# www.blender.org
mtllib desk_top.mtl
o LabTable_02.001
v -388.110718 162.529877 32.365246
v -388.110718 162.529877 33.626568
v 76.376984 162.529907 33.626575
v 76.376984 162.529907 32.365253
v 76.376984 157.468918 32.365253
v -388.110718 157.468872 32.365246
v 76.376984 157.468918 33.626575
v -388.110718 157.468872 33.626568
v -388.110718 162.529877 146.343414
v 76.376984 162.529907 146.343414
v 76.376984 157.468918 146.343414
v -388.110718 157.468872 146.343414
v -389.421021 158.734161 32.660625
v -389.122314 157.468872 32.365246
v -389.122314 157.468872 33.626568
v -389.421021 158.734161 33.626568
v -389.421021 161.264938 32.660625
v -389.122314 162.529877 32.365246
v -389.122314 157.468872 146.343414
v -389.421021 158.734161 146.343414
v -389.421021 161.264938 33.626568
v -389.122314 162.529877 33.626568
v -389.421021 161.264938 146.343414
v -389.122314 162.529877 146.343414
v 77.484161 161.264923 32.660645
v 77.185425 162.529907 32.365253
v 77.185425 162.529907 33.626575
v 77.484161 161.264923 33.626575
v 77.484161 158.734192 32.660645
v 77.185425 157.468918 32.365253
v 77.185425 162.529907 146.343414
v 77.484161 161.264923 146.343414
v 77.484161 158.734192 33.626575
v 77.185425 157.468918 33.626575
v 77.484161 158.734192 146.343414
v 77.185425 157.468918 146.343414
v 76.376984 158.600494 147.359665
v 76.376984 157.468918 147.095474
v 77.185425 157.468918 147.095474
v 77.185425 158.600494 147.359665
v -388.110718 158.600433 147.359650
v -388.110718 157.468872 147.095459
v -389.122314 158.600433 147.359650
v -389.122314 157.468872 147.095459
v 76.376984 162.529907 147.095474
v 76.376984 161.398468 147.359665
v 77.185425 161.398468 147.359665
v 77.185425 162.529907 147.095474
v -388.110718 162.529877 147.095459
v -388.110718 161.398438 147.359650
v -389.122314 162.529877 147.095459
v -389.122314 161.398438 147.359650
v -389.276154 159.366791 147.207550
v -389.421021 158.734161 146.842239
v -389.276154 160.632202 147.207550
v -389.421021 161.264938 146.842224
v 77.339294 160.632248 147.207550
v 77.484161 161.264923 146.842239
v 77.339294 159.366791 147.207550
v 77.484161 158.734192 146.842255
vt 0.958324 0.984816
vt 0.953303 0.985437
vt 0.943259 0.985437
vt 0.938239 0.984816
vt 0.938239 0.015184
vt 0.943259 0.014563
vt 0.953303 0.014563
vt 0.958324 0.015184
vt 0.462139 0.982072
vt 0.457134 0.982072
vt 0.457134 0.016226
vt 0.462139 0.016226
vt 0.958324 0.016865
vt 0.958324 0.982712
vt 0.938239 0.982712
vt 0.938239 0.016865
vt 0.931108 0.982495
vt 0.926103 0.982495
vt 0.926103 0.016648
vt 0.931108 0.016648
vt 0.009814 0.982072
vt 0.009814 0.016226
vt 0.478783 0.982495
vt 0.478783 0.016648
vt 0.984635 0.240573
vt 0.979614 0.241112
vt 0.979614 0.238507
vt 0.984635 0.238578
vt 0.979614 0.005663
vt 0.984635 0.005734
vt 0.999699 0.241112
vt 0.994679 0.240573
vt 0.994679 0.238578
vt 0.999699 0.238507
vt 0.994679 0.005734
vt 0.999699 0.005663
vt 0.462139 0.984176
vt 0.457134 0.984176
vt 0.926103 0.014544
vt 0.931108 0.014544
vt 0.009814 0.984176
vt 0.478783 0.014544
vt 0.984634 0.485249
vt 0.979614 0.485788
vt 0.979614 0.483182
vt 0.984634 0.483253
vt 0.979614 0.250338
vt 0.984634 0.250409
vt 0.999699 0.485788
vt 0.994677 0.485249
vt 0.994677 0.483253
vt 0.999699 0.483182
vt 0.994677 0.250409
vt 0.999699 0.250338
vt 0.457134 0.014544
vt 0.462139 0.014544
vt 0.931108 0.984176
vt 0.926103 0.984176
vt 0.009814 0.014544
vt 0.478783 0.984176
vt 0.963417 0.016225
vt 0.958927 0.016226
vt 0.958927 0.014544
vt 0.963417 0.014544
vt 0.963417 0.982072
vt 0.958927 0.982072
vt 0.963417 0.984176
vt 0.958927 0.984176
vt 0.979011 0.016226
vt 0.974521 0.016225
vt 0.974521 0.014544
vt 0.979011 0.014544
vt 0.979011 0.982072
vt 0.974521 0.982072
vt 0.979011 0.984176
vt 0.974521 0.984176
vt 0.979614 0.004109
vt 0.984105 0.003563
vt 0.987146 0.003914
vt 0.984635 0.004703
vt 0.992168 0.003914
vt 0.994679 0.004703
vt 0.995209 0.003563
vt 0.999699 0.004109
vt 0.979614 0.248785
vt 0.984104 0.248239
vt 0.987145 0.248590
vt 0.984634 0.249379
vt 0.992167 0.248590
vt 0.994677 0.249379
vt 0.995208 0.248239
vt 0.999699 0.248785
vt 0.006830 0.982072
vt 0.006830 0.016226
vt 0.475799 0.982495
vt 0.475799 0.016648
vt 0.006830 0.984176
vt 0.475799 0.014544
vt 0.006830 0.014544
vt 0.475799 0.984176
vn -0.7031 0.0000 -0.7111
vn 0.7031 0.0000 -0.7111
vn -0.0000 0.7071 -0.7071
vn -0.0000 1.0000 0.0000
vn 0.0000 -0.7071 -0.7071
vn 0.0000 -1.0000 0.0000
vn -0.9924 -0.1233 0.0000
vn -0.4719 -0.6766 -0.5652
vn -0.6206 -0.7841 0.0000
vn -0.9933 -0.1157 0.0000
vn -0.4718 0.6767 -0.5652
vn -0.9924 0.1234 0.0000
vn -0.9933 0.1157 0.0000
vn -0.6206 0.7842 0.0000
vn 0.9924 0.1234 0.0000
vn 0.4718 0.6767 -0.5652
vn 0.6205 0.7842 0.0000
vn 0.9933 0.1157 0.0000
vn 0.4719 -0.6766 -0.5652
vn 0.9924 -0.1233 0.0000
vn 0.9933 -0.1157 0.0000
vn 0.6206 -0.7842 0.0000
vn -0.0000 -0.1144 0.9934
vn 0.0000 -0.7834 0.6215
vn 0.5204 -0.6774 0.5200
vn 0.4790 -0.1212 0.8694
vn -0.4776 -0.1170 0.8707
vn -0.5204 -0.6774 0.5199
vn -0.0000 0.7834 0.6215
vn -0.0000 0.1144 0.9934
vn 0.4776 0.1171 0.8707
vn 0.5203 0.6774 0.5199
vn -0.5203 0.6774 0.5199
vn -0.4790 0.1212 0.8694
vn -0.8600 -0.0128 0.5101
vn -0.9827 -0.1073 0.1508
vn -0.8600 0.0128 0.5101
vn -0.9716 0.0386 0.2334
vn 0.8600 0.0128 0.5101
vn 0.9827 0.1074 0.1508
vn 0.8600 -0.0128 0.5101
vn 0.9716 -0.0387 0.2334
usemtl initialShadingGroup.004
s off
f 14/1/1 13/2/1 17/3/1 18/4/1
f 26/5/2 25/6/2 29/7/2 30/8/2
s 1
f 1/9/3 2/10/4 3/11/4 4/12/3
f 5/13/5 6/14/5 1/15/3 4/16/3
f 5/17/5 7/18/6 8/19/6 6/20/5
f 3/11/4 2/10/4 9/21/4 10/22/4
f 8/19/6 7/18/6 11/23/6 12/24/6
f 13/25/7 14/26/8 15/27/9 16/28/10
f 16/28/10 15/27/9 19/29/9 20/30/10
f 18/31/11 17/32/12 21/33/13 22/34/14
f 22/34/14 21/33/13 23/35/13 24/36/14
f 13/25/7 16/28/10 21/33/13 17/32/12
f 18/37/11 22/38/14 2/10/4 1/9/3
f 6/20/5 8/19/6 15/39/9 14/40/8
f 6/14/5 14/1/8 18/4/11 1/15/3
f 22/38/14 24/41/14 9/21/4 2/10/4
f 15/39/9 8/19/6 12/24/6 19/42/9
f 21/33/13 16/28/10 20/30/10 23/35/13
f 25/43/15 26/44/16 27/45/17 28/46/18
f 28/46/18 27/45/17 31/47/17 32/48/18
f 30/49/19 29/50/20 33/51/21 34/52/22
f 34/52/22 33/51/21 35/53/21 36/54/22
f 25/43/15 28/46/18 33/51/21 29/50/20
f 4/12/3 3/11/4 27/55/17 26/56/16
f 30/8/19 5/13/5 4/16/3 26/5/16
f 30/57/19 34/58/22 7/18/6 5/17/5
f 27/55/17 3/11/4 10/22/4 31/59/17
f 33/51/21 28/46/18 32/48/18 35/53/21
f 7/18/6 34/58/22 36/60/22 11/23/6
f 37/61/23 38/62/24 39/63/25 40/64/26
f 38/62/24 37/61/23 41/65/23 42/66/24
f 42/66/24 41/65/23 43/67/27 44/68/28
f 45/69/29 46/70/30 47/71/31 48/72/32
f 46/70/30 45/69/29 49/73/29 50/74/30
f 50/74/30 49/73/29 51/75/33 52/76/34
f 44/77/28 43/78/27 53/79/35 54/80/36
f 54/80/36 53/79/35 55/81/37 56/82/38
f 56/82/38 55/81/37 52/83/34 51/84/33
f 48/85/32 47/86/31 57/87/39 58/88/40
f 58/88/40 57/87/39 59/89/41 60/90/42
f 60/90/42 59/89/41 40/91/26 39/92/25
f 50/74/30 41/65/23 37/61/23 46/70/30
f 10/22/4 9/21/4 49/93/29 45/94/29
f 12/24/6 11/23/6 38/95/24 42/96/24
f 44/77/28 54/80/36 20/30/10 19/29/9
f 53/79/35 43/78/27 52/83/34 55/81/37
f 56/82/38 51/84/33 24/36/14 23/35/13
f 43/67/27 41/65/23 50/74/30 52/76/34
f 20/30/10 54/80/36 56/82/38 23/35/13
f 9/21/4 24/41/14 51/97/33 49/93/29
f 19/42/9 12/24/6 42/96/24 44/98/28
f 48/85/32 58/88/40 32/48/18 31/47/17
f 57/87/39 47/86/31 40/91/26 59/89/41
f 60/90/42 39/92/25 36/54/22 35/53/21
f 46/70/30 37/61/23 40/64/26 47/71/31
f 31/59/17 10/22/4 45/94/29 48/99/32
f 35/53/21 32/48/18 58/88/40 60/90/42
f 11/23/6 36/60/22 39/100/25 38/95/24
